<!-- favicon.svg -->
<svg
  width="64"
  height="64"
  viewBox="0 0 64 64"
  fill="none"
  xmlns="http://www.w3.org/2000/svg"
>
  <!-- Background -->
  <rect
    x="4"
    y="4"
    width="56"
    height="56"
    rx="14"
    fill="#020617"
  />
  <rect
    x="4.75"
    y="4.75"
    width="54.5"
    height="54.5"
    rx="13.5"
    stroke="#1E293B"
    stroke-width="1.5"
  />

  <!-- Microservice / node dots -->
  <circle cx="18" cy="18" r="2" fill="#38BDF8" />
  <circle cx="46" cy="18" r="2" fill="#22C55E" />
  <circle cx="18" cy="46" r="2" fill="#F97316" />
  <circle cx="46" cy="46" r="2" fill="#E5E7EB" />

  <!-- Connecting lines -->
  <path
    d="M18 20 L18 40 L46 40"
    stroke="#0F172A"
    stroke-width="1.3"
    stroke-linecap="round"
  />
  <path
    d="M20 18 L44 18"
    stroke="#0F172A"
    stroke-width="1.3"
    stroke-linecap="round"
  />
  <path
    d="M46 20 L46 32"
    stroke="#0F172A"
    stroke-width="1.3"
    stroke-linecap="round"
  />

  <!-- SK monogram -->
  <path
    d="M24 39C26.8 39 29 37.4 29 35.1C29 33.2 27.7 32.3 25.8 31.7L24.6 31.3C23.3 30.9 22.7 30.4 22.7 29.6C22.7 28.7 23.5 28.1 24.7 28.1C25.7 28.1 26.6 28.5 27.3 29.2L28.6 27.7C27.6 26.8 26.3 26.3 24.7 26.3C22.3 26.3 20.5 27.7 20.5 29.8C20.5 31.6 21.6 32.6 23.3 33.2L24.5 33.6C25.9 34.1 26.5 34.6 26.5 35.5C26.5 36.5 25.7 37.1 24.4 37.1C23.1 37.1 22 36.5 21.2 35.6L19.9 37.2C20.9 38.4 22.5 39 24 39Z"
    fill="#E5E7EB"
  />
  <path
    d="M33 38.8H35.2V34.1L38.1 37.8H40.9L37.5 33.7L40.8 29.3H38.1L35.9 32.4L35.2 31.5V29.3H33V38.8Z"
    fill="#38BDF8"
  />
</svg>
